<svg width="13" height="13" viewBox="0 0 13 13" fill="none" xmlns="http://www.w3.org/2000/svg">
<path d="M12.9875 12.0968L11.5729 3.82696C11.4912 3.34962 11.0221 2.96125 10.5272 2.96125H9.63355C9.5768 1.31897 8.19306 0 6.49999 0C4.80693 0 3.42319 1.31897 3.36644 2.96125H2.47283C1.97789 2.96125 1.50877 3.34959 1.42713 3.82696L0.0125338 12.0968C-0.0282551 12.3353 0.0312606 12.5614 0.180118 12.7334C0.328976 12.9053 0.547191 13 0.794522 13H12.2054C12.4528 13 12.671 12.9053 12.8198 12.7334C12.9688 12.5614 13.0283 12.3353 12.9875 12.0968ZM0.505172 10.5942H6.18074C6.2449 10.5942 6.29692 10.5434 6.29692 10.4806C6.29692 10.4179 6.2449 10.367 6.18074 10.367H0.544047L1.14536 6.85164H2.75433C2.81849 6.85164 2.87052 6.80077 2.87052 6.73803C2.87052 6.67529 2.81849 6.62441 2.75433 6.62441H1.1842L1.3344 5.74632H4.427C4.49117 5.74632 4.54319 5.69545 4.54319 5.63271C4.54319 5.56997 4.49117 5.51909 4.427 5.51909H1.37328L1.55557 4.45339H11.4444L12.3562 9.7838H9.6172C9.55304 9.7838 9.50101 9.83468 9.50101 9.89742C9.50101 9.96016 9.55304 10.011 9.6172 10.011H12.3951L12.4895 10.563H11.8489C11.7848 10.563 11.7327 10.6139 11.7327 10.6766C11.7327 10.7394 11.7848 10.7902 11.8489 10.7902H12.5284L12.6467 11.482H0.353307L0.505172 10.5942ZM6.49999 0.227229C8.0649 0.227229 9.34436 1.44429 9.40101 2.96125H8.85279C8.82565 2.38457 8.58452 1.84184 8.1666 1.42285C7.71912 0.974223 7.12725 0.727159 6.49999 0.727159C5.87266 0.727159 5.28078 0.973903 4.83342 1.422C4.41508 1.84098 4.1739 2.38406 4.14714 2.96127H3.59895C3.65562 1.44429 4.93509 0.227229 6.49999 0.227229ZM8.62031 2.96125H4.37963C4.43611 1.84512 5.36556 0.954388 6.50002 0.954388C7.63391 0.954388 8.56303 1.84499 8.62031 2.96125ZM2.47283 3.18847H10.5272C10.9071 3.18847 11.281 3.49804 11.3437 3.86444L11.4056 4.22613H1.59444L1.65631 3.86444C1.71897 3.49804 2.0929 3.18847 2.47283 3.18847ZM12.6425 12.5865C12.5386 12.7066 12.3833 12.7727 12.2055 12.7727H0.794549C0.616685 12.7727 0.461458 12.7066 0.35749 12.5865C0.253495 12.4664 0.212405 12.3058 0.241739 12.1343L0.314432 11.7093H12.6856L12.7582 12.1343C12.7876 12.3058 12.7465 12.4664 12.6425 12.5865Z" fill="black"/>
</svg>
