<svg width="29" height="29" viewBox="0 0 29 29" fill="none" xmlns="http://www.w3.org/2000/svg">
<g clip-path="url(#clip0_83_552)">
<path d="M9.0625 27.1875C10.0635 27.1875 10.875 26.376 10.875 25.375C10.875 24.374 10.0635 23.5625 9.0625 23.5625C8.06148 23.5625 7.25 24.374 7.25 25.375C7.25 26.376 8.06148 27.1875 9.0625 27.1875Z" fill="black"/>
<path d="M21.75 27.1875C22.751 27.1875 23.5625 26.376 23.5625 25.375C23.5625 24.374 22.751 23.5625 21.75 23.5625C20.749 23.5625 19.9375 24.374 19.9375 25.375C19.9375 26.376 20.749 27.1875 21.75 27.1875Z" fill="black"/>
<path d="M25.375 6.34369H5.27438L4.53125 2.53744C4.48888 2.32966 4.37499 2.14331 4.2094 2.01084C4.04381 1.87837 3.83701 1.80816 3.625 1.81244H0V3.62494H2.88188L6.34375 21.0249C6.38612 21.2327 6.50001 21.4191 6.6656 21.5515C6.83119 21.684 7.03799 21.7542 7.25 21.7499H23.5625V19.9374H7.99313L7.25 16.3124H23.5625C23.772 16.3176 23.9768 16.2499 24.142 16.121C24.3073 15.9922 24.4227 15.81 24.4688 15.6056L26.2813 7.44932C26.3116 7.31485 26.3109 7.17523 26.2792 7.04108C26.2475 6.90693 26.1855 6.78178 26.0982 6.67517C26.0108 6.56856 25.9002 6.48328 25.7749 6.42584C25.6496 6.3684 25.5128 6.3403 25.375 6.34369ZM22.8375 14.4999H6.90563L5.63688 8.15619H24.2422L22.8375 14.4999Z" fill="black"/>
</g>
<defs>
<clipPath id="clip0_83_552">
<rect width="29" height="29" fill="white"/>
</clipPath>
</defs>
</svg>
