<svg width="14" height="14" viewBox="0 0 14 14" fill="none" xmlns="http://www.w3.org/2000/svg">
<path d="M7.87455 4.2245L9.99533 2.07703L9.18574 0.4375H4.81446L4.00464 2.07703L6.12564 4.2245C3.97467 4.64013 2.34302 6.55484 2.34302 8.85041C2.34302 11.4489 4.4323 13.5625 6.99999 13.5625C9.56767 13.5625 11.657 11.4489 11.657 8.85041C11.657 6.55484 10.0253 4.63991 7.87455 4.2245ZM7.30208 3.21016H6.69439L6.37677 2.24722H7.61949L7.30208 3.21016ZM8.92258 0.861L9.39814 1.82394H8.09242L7.93558 0.861H8.92258ZM8.06552 2.24722H9.23233L8.28077 3.21016H7.74811L8.06552 2.24722ZM6.49292 0.861H7.50661L7.66346 1.82394H6.33345L6.49292 0.861ZM5.07739 0.861H6.06396L5.90449 1.82394H4.60183L5.07739 0.861ZM4.76699 2.24722H5.93096L6.24836 3.21016H5.71527L4.76699 2.24722ZM6.99999 13.139C4.66549 13.139 2.7663 11.2151 2.7663 8.85041C2.7663 6.48572 4.66571 4.56159 6.99999 4.56159C9.33427 4.56159 11.2335 6.4855 11.2335 8.85041C11.2335 11.2153 9.33449 13.139 6.99999 13.139Z" fill="black"/>
<path d="M6.99999 5.05488C4.93127 5.05488 3.24799 6.75763 3.24799 8.85041C3.24799 10.9434 4.93127 12.6462 6.99999 12.6462C9.06871 12.6462 10.752 10.9436 10.752 8.85041C10.752 6.75763 9.06871 5.05488 6.99999 5.05488ZM6.99999 12.2227C5.16445 12.2227 3.67127 10.7098 3.67127 8.85041C3.67127 6.99103 5.16467 5.47816 6.99999 5.47816C8.8353 5.47816 10.3285 6.99103 10.3285 8.85041C10.3285 10.7098 8.83552 12.2227 6.99999 12.2227Z" fill="black"/>
</svg>
