<svg width="14" height="14" viewBox="0 0 14 14" fill="none" xmlns="http://www.w3.org/2000/svg">
<path fill-rule="evenodd" clip-rule="evenodd" d="M13 0H8.5C8.22386 0 8 0.223857 8 0.5C8 0.776142 8.22386 1 8.5 1L11.7929 1L8.16437 4.62853C7.30243 3.92318 6.20063 3.5 5 3.5C2.23858 3.5 0 5.73858 0 8.5C0 11.2614 2.23858 13.5 5 13.5C7.76142 13.5 10 11.2614 10 8.5C10 7.29937 9.57682 6.19757 8.87147 5.33563L12.5 1.70711V5C12.5 5.27614 12.7239 5.5 13 5.5C13.2761 5.5 13.5 5.27614 13.5 5V0.5C13.5 0.223857 13.2761 0 13 0ZM9 8.5C9 10.7091 7.20914 12.5 5 12.5C2.79086 12.5 1 10.7091 1 8.5C1 6.29086 2.79086 4.5 5 4.5C7.20914 4.5 9 6.29086 9 8.5Z" fill="black"/>
</svg>
