<svg width="16" height="16" viewBox="0 0 16 16" fill="none" xmlns="http://www.w3.org/2000/svg">
<g clip-path="url(#clip0_810_1280)">
<path d="M13.528 2.5625L11.1065 1.351L10.1275 0.372501C10.057 0.302501 9.94301 0.302501 9.87251 0.372501L8.00001 2.2455L6.12701 0.372501C6.05651 0.302001 5.94301 0.302001 5.87251 0.372501L4.89351 1.352L2.47201 2.5625C2.07001 2.764 1.82001 3.1685 1.82001 3.618V15.5C1.82001 15.5995 1.90051 15.68 2.00001 15.68H4.00001C4.09951 15.68 4.18001 15.5995 4.18001 15.5V14.7915L5.49701 15.4505C5.79851 15.601 6.13551 15.6805 6.47201 15.6805H9.52801C9.86451 15.6805 10.202 15.601 10.503 15.4505L11.82 14.792V15.5C11.82 15.5995 11.9005 15.68 12 15.68H14C14.0995 15.68 14.18 15.5995 14.18 15.5V3.6175C14.18 3.168 13.93 2.764 13.528 2.5625ZM10 0.754501L10.7455 1.499L9.00001 3.2455L8.25451 2.5L10 0.754501ZM6.00001 0.754501L7.74551 2.5L7.00001 3.2455L5.25451 1.5L6.00001 0.754501ZM3.82001 15.32H2.18001V14.18H3.82001V14.5V15.32ZM6.47201 15.32C6.19101 15.32 5.90951 15.2535 5.65801 15.128L4.18001 14.3885V5H3.82001V13.82H2.18001V3.618C2.18001 3.3055 2.35401 3.0245 2.63301 2.8845L4.96451 1.719L6.87301 3.627C6.94351 3.6975 7.05701 3.6975 7.12751 3.627L7.32051 3.434V15.32H6.47201ZM7.68001 15.32V3.0745L8.00001 2.7545L8.32001 3.0745V15.3195L7.68001 15.32ZM13.82 15.32H12.18V14.5V14.18H13.8195L13.82 15.32ZM13.82 13.82H12.18V5H11.82V14.3885L10.342 15.128C10.0905 15.2535 9.80901 15.32 9.52801 15.32H8.68001V3.435L8.87251 3.6275C8.94001 3.6955 9.06001 3.6955 9.12751 3.6275L11.0355 1.7185L13.3665 2.885C13.6465 3.025 13.8195 3.306 13.8195 3.618L13.82 13.82Z" fill="black"/>
</g>
<defs>
<clipPath id="clip0_810_1280">
<rect width="16" height="16" fill="white"/>
</clipPath>
</defs>
</svg>
