<svg width="26" height="26" viewBox="0 0 26 26" fill="none" xmlns="http://www.w3.org/2000/svg">
<g opacity="0.6">
<path d="M5.93363 8.62578C5.61189 8.93858 5.60464 9.45298 5.91744 9.77472C6.23024 10.0965 6.74464 10.1037 7.06638 9.79091L5.93363 8.62578ZM10.4 5.41668H11.2125C11.2125 5.09013 11.017 4.79532 10.7162 4.66823C10.4154 4.54115 10.0678 4.6065 9.83363 4.83411L10.4 5.41668ZM9.5875 20.5833C9.5875 21.0321 9.95128 21.3958 10.4 21.3958C10.8487 21.3958 11.2125 21.0321 11.2125 20.5833H9.5875ZM20.0664 17.3742C20.3881 17.0614 20.3954 16.5471 20.0825 16.2253C19.7698 15.9036 19.2554 15.8963 18.9336 16.2092L20.0664 17.3742ZM15.6 20.5833H14.7875C14.7875 20.9099 14.983 21.2047 15.2838 21.3318C15.5846 21.4589 15.9323 21.3936 16.1664 21.1659L15.6 20.5833ZM16.4125 5.41668C16.4125 4.96795 16.0487 4.60418 15.6 4.60418C15.1513 4.60418 14.7875 4.96795 14.7875 5.41668H16.4125ZM7.06638 9.79091L10.9664 5.99924L9.83363 4.83411L5.93363 8.62578L7.06638 9.79091ZM9.5875 5.41668V20.5833H11.2125V5.41668H9.5875ZM18.9336 16.2092L15.0336 20.0008L16.1664 21.1659L20.0664 17.3742L18.9336 16.2092ZM16.4125 20.5833V5.41668H14.7875V20.5833H16.4125Z" fill="black"/>
</g>
</svg>
